# xmcd CD database file
#
# Track frame offsets:
#	150
#	12870
#	32387
#	46292
#	66367
#	81307
#	97985
#	108354
#	126215
#	143405
#	159587
#	170652
#
# Disc length: 2518 seconds
#
# Revision: 0
# Processed by: cddbd v1.4PL0 Copyright (c) Steve Scherf et al.
# Submitted via: CDex 1.40Release
#
DISCID=9309d40c
DTITLE=Lynwood Slim - World Wide Wood
DYEAR=2000
DGENRE=Blues
TTITLE0=Ain't Gonna Cry
TTITLE1=Don't Tell Me 
TTITLE2=Stumbl'n Block
TTITLE3=I Don't Want to Know
TTITLE4=Fine Frame
TTITLE5=Scream'n and Cry'n
TTITLE6=Certainly All
TTITLE7=Fair Enough
TTITLE8=Come Back
TTITLE9=Look What You Done
TTITLE10=No More Doggin'
TTITLE11=Fine as Wine
EXTD=YEAR: 2000 ID3G: 0
EXTT0=
EXTT1=
EXTT2=
EXTT3=
EXTT4=
EXTT5=
EXTT6=
EXTT7=
EXTT8=
EXTT9=
EXTT10=
EXTT11=
PLAYORDER=
